<?xml version="1.0" standalone="no"?>
<!DOCTYPE svg PUBLIC "-//W3C//DTD SVG 20010904//EN"
 "http://www.w3.org/TR/2001/REC-SVG-20010904/DTD/svg10.dtd">
<svg version="1.0" xmlns="http://www.w3.org/2000/svg"
 width="500.000000pt" height="500.000000pt" viewBox="0 0 500.000000 500.000000"
 preserveAspectRatio="xMidYMid meet">
<metadata>
Created by potrace 1.11, written by Peter Selinger 2001-2013
</metadata>
<g transform="translate(0.000000,500.000000) scale(0.100000,-0.100000)"
fill="#000000" stroke="none">
<path d="M4875 3941 c-6 -4 -41 -25 -80 -46 -38 -21 -139 -78 -224 -126 -84
-49 -155 -89 -157 -89 -3 0 -23 -11 -45 -26 -40 -25 -54 -33 -154 -88 -27 -16
-70 -40 -95 -55 -81 -47 -104 -60 -160 -91 -30 -17 -75 -42 -100 -57 -25 -14
-269 -154 -543 -310 -275 -157 -513 -293 -530 -302 -18 -10 -81 -47 -142 -81
-60 -35 -126 -72 -145 -83 -40 -22 -262 -148 -271 -153 -4 -2 -44 90 -89 204
-46 114 -91 225 -101 247 -22 51 -237 586 -258 643 -13 34 -21 42 -41 42 -323
6 -631 3 -634 -5 -2 -5 -33 -82 -69 -170 -36 -88 -112 -277 -170 -420 -58
-143 -134 -332 -170 -420 -36 -88 -113 -279 -171 -425 -59 -146 -111 -274
-116 -285 -5 -11 -19 -45 -30 -75 -11 -30 -25 -64 -30 -75 -5 -11 -39 -94 -75
-185 -36 -91 -70 -174 -75 -185 -14 -29 -110 -275 -110 -280 0 0 159 1 353 2
l353 1 360 255 c197 139 635 449 972 688 337 239 632 448 656 464 24 17 63 44
87 61 39 27 579 409 670 473 65 46 252 178 329 232 41 29 100 71 132 93 31 23
64 47 75 54 10 7 149 105 308 218 160 114 306 217 325 230 78 52 162 112 173
123 13 13 6 15 -8 2z m-3329 -1523 c88 -235 111 -305 101 -314 -10 -9 -268
-158 -422 -244 -16 -9 -61 -34 -99 -55 -57 -32 -67 -35 -57 -17 6 11 25 58 41
104 17 46 34 92 39 103 11 23 237 630 259 693 8 23 17 41 19 38 3 -2 56 -141
119 -308z"/>
<path d="M2124 1788 l-270 -192 99 -265 c55 -146 103 -270 107 -275 8 -8 707
-12 715 -4 5 5 -368 928 -375 927 -3 0 -127 -86 -276 -191z"/>
</g>
</svg>
